<!DOCTYPE svg PUBLIC "-//W3C//DTD SVG 1.1//EN" "http://www.w3.org/Graphics/SVG/1.1/DTD/svg11.dtd">
<!-- Uploaded to: SVG Repo, www.svgrepo.com, Transformed by: SVG Repo Mixer Tools -->
<svg height="800px" width="800px" version="1.1" id="Layer_1" xmlns="http://www.w3.org/2000/svg" xmlns:xlink="http://www.w3.org/1999/xlink" viewBox="0 0 512 512" xml:space="preserve" fill="#000000">
<g id="SVGRepo_bgCarrier" stroke-width="0"/>
<g id="SVGRepo_tracerCarrier" stroke-linecap="round" stroke-linejoin="round" stroke="#CCCCCC" stroke-width="2.048"/>
<g id="SVGRepo_iconCarrier"> <path style="fill:#f46262;" d="M431.952,112.527h-74.678c-4.661,0-8.44,3.778-8.44,8.44V503.56c0,4.662,3.779,8.44,8.44,8.44h74.678 c4.661,0,8.44-3.778,8.44-8.44V120.967C440.392,116.305,436.613,112.527,431.952,112.527z"/> <path style="fill:#f46262;" d="M431.952,112.527h-33.758V512h33.758c4.661,0,8.44-3.778,8.44-8.44V120.967 C440.392,116.305,436.613,112.527,431.952,112.527z"/> <path style="fill:#84bff5;" d="M295.897,196.441h-74.678c-4.661,0-8.44,3.778-8.44,8.44V503.56c0,4.662,3.779,8.44,8.44,8.44h74.678 c4.661,0,8.44-3.778,8.44-8.44V204.881C304.336,200.22,300.557,196.441,295.897,196.441z"/> <path style="fill:#84bff5;" d="M295.897,196.441h-33.758V512h33.758c4.661,0,8.44-3.778,8.44-8.44V204.881 C304.336,200.22,300.557,196.441,295.897,196.441z"/> <path style="fill:#FFDB56;" d="M159.84,289.753H85.163c-4.661,0-8.44,3.778-8.44,8.44V503.56c0,4.662,3.779,8.44,8.44,8.44h74.678 c4.661,0,8.44-3.778,8.44-8.44V298.192C168.279,293.531,164.501,289.753,159.84,289.753z"/> <path style="fill:#FFDB56;" d="M159.84,289.753h-33.758V512h33.758c4.661,0,8.44-3.778,8.44-8.44V298.192 C168.279,293.531,164.501,289.753,159.84,289.753z"/> <path style="fill:#fcfcfc;" d="M502.998,512H9.002c-4.661,0-8.44-3.778-8.44-8.44V8.44C0.563,3.778,4.341,0,9.002,0 s8.44,3.778,8.44,8.44v486.681h485.556c4.661,0,8.44,3.778,8.44,8.44S507.659,512,502.998,512z"/> </g>
</svg>