<svg id="Слой_1" data-name="Слой 1" xmlns="http://www.w3.org/2000/svg" viewBox="0 0 150 190"><defs><style>.cls-1{fill-rule:evenodd;}</style></defs><title>Монтажная область 28</title><path class="cls-1" d="M113.33,74.75l-2.83,72.73-58.44-1,.93-5.11,52.36.17,2-61.51-11.06-.17L101.46,119,85.05,136.29l-39.14,2.17-9.24-71.4,57.26-5L95.51,74ZM42.56,72.23,51,133.61l31.15-3-.62-15.6,13.52-1-5.44-46ZM79.51,96c-.87.27-5.66,8-9.2.22-1.43.32-2.24,6.56-8,2.45h0c-3.74,2.73-5.58.61-6.24,0-1.24,2-2.86,1.74-5,1.89l-.59-3.42c2.5-.77,1.6-6.29,8.08-2.41,1.15-1.4,4.44-3.09,6.84,0v0s-.07-.35-.07-.36c3-4.09,8-4.21,9.51-.11,3.25-6.67,7.31-3,10.36-.22.8-.34,2.68-1.21,2.68-1.21l1.67,2.29C86.8,99.46,82.33,98.85,79.51,96Zm-.74-14.78c-3.1,4.87-7.14,5-9.36,2-1,3.37-7.75,6.38-9.48-.41-2.32-.28-1.61,4.32-5.39,5a6.07,6.07,0,0,1-6.64-3.82l1.31-2.3s2.36.79,3.57,1.09c2.65-6.28,9.12-7.79,12-1.6,1.92-5.6,7-3.73,8.53-1.14,3.06-5.73,7.26-4.31,9.43-2.28.28-.35,2.48-2.1,2.48-2.1l2.48,2.1C85.36,83.12,81.22,83.87,78.77,81.26ZM57.42,109.35c1.57-5.84,7.52-4.72,8.89-1.18,1.55-3.19,4-4.18,7.11-.87a37.69,37.69,0,0,0,3.76-1.61l2,2.13c-1.2,1.3-3.53,6.51-8.76,3.28-1.38,2.62-5.62,5-8.1-.32-3.64,7-8.28,4.53-9.79-.87l1.63-2.15A22.64,22.64,0,0,0,57.42,109.35Z"/></svg>