<svg id="Слой_1" data-name="Слой 1" xmlns="http://www.w3.org/2000/svg" viewBox="25 50 150 100" style="fill: #939090" stroke-width="1"><defs><style>.cls-1{fill-rule:evenodd;}</style>
</defs><title>Монтажная область 73</title>

<path class="cls-1" d="M120.2,136.09l-3,11.44h-5.36l-.63-11.42h-72l-.79,11.42H33.11l-3.17-11.44c-13-.41-11.77-9.55-11.77-9.55l113.46.2S134.46,135.86,120.2,136.09ZM100.82,63.46l18.6-.13.25,58.43-19.5.16Zm9.23,48.42c4.49,0,4.52-7-.08-7A3.5,3.5,0,1,0,110.05,111.88Zm-3.81-17.56,8,.08.4-23.26-8.48.06ZM75.32,63.64l19.39-.13L94.83,122l-19.46.16Zm9.86,48.24c4.49,0,4.52-7-.08-7A3.5,3.5,0,1,0,85.18,111.88ZM80.86,94.32l7.94.08.41-23.26-8.48.06ZM38.1,118.6,53.18,62.1,72,66.81l-14.89,56.5Zm12.37-9.91c4.34,1.16,6.18-5.58,1.73-6.78S45.71,107.41,50.47,108.69ZM64.56,72.63l-8.2-2.13L50.5,92.86,58.15,95Z"/>

</svg>