<svg width="40" height="40" viewBox="0 0 50 40" fill="none" xmlns="http://www.w3.org/2000/svg">
<mask id="mask0_2_73" style="mask-type:alpha" maskUnits="userSpaceOnUse" x="0" y="0" width="40" height="40">
<rect width="40" height="40" fill="#5c3eb9"/>
</mask>
<g mask="url(#mask0_2_73)">
<path d="M0 30V27.6528C0 26.5146 0.594903 25.6027 1.78471 24.9172C2.97454 24.2317 4.51296 23.8889 6.39996 23.8889C6.74546 23.8889 7.07767 23.8959 7.39658 23.9097C7.71553 23.9236 8.02778 23.9558 8.33333 24.0063C8.05556 24.5114 7.84722 25.0331 7.70833 25.5714C7.56944 26.1097 7.5 26.6831 7.5 27.2917V30H0ZM10 30V27.2917C10 25.4861 10.9236 24.0278 12.7708 22.9167C14.6181 21.8056 17.0278 21.25 20 21.25C23 21.25 25.4167 21.8056 27.25 22.9167C29.0833 24.0278 30 25.4861 30 27.2917V30H10ZM32.5 30V27.2917C32.5 26.6831 32.4375 26.1097 32.3125 25.5714C32.1875 25.0331 31.9907 24.5114 31.7222 24.0063C32.0278 23.9558 32.3373 23.9236 32.6506 23.9097C32.964 23.8959 33.2841 23.8889 33.6111 23.8889C35.5278 23.8889 37.0718 24.2317 38.243 24.9172C39.4143 25.6027 40 26.5146 40 27.6528V30H32.5ZM19.9945 24.0278C17.9889 24.0278 16.3148 24.3194 14.9722 24.9028C13.6296 25.4861 12.9213 26.213 12.8472 27.0833V27.2222H27.1667V27.0556C27.0834 26.2037 26.3773 25.4861 25.0486 24.9028C23.7199 24.3194 22.0352 24.0278 19.9945 24.0278ZM6.37687 22.5C5.54229 22.5 4.82639 22.2008 4.22917 21.6025C3.63194 21.0041 3.33333 20.2847 3.33333 19.4445C3.33333 18.5926 3.63253 17.8704 4.23092 17.2778C4.82928 16.6852 5.5486 16.3889 6.38888 16.3889C7.24074 16.3889 7.96296 16.6852 8.55554 17.2778C9.14813 17.8704 9.44442 18.5966 9.44442 19.4565C9.44442 20.2911 9.14813 21.007 8.55554 21.6042C7.96296 22.2014 7.23674 22.5 6.37687 22.5ZM33.5991 22.5C32.7645 22.5 32.0486 22.2008 31.4514 21.6025C30.8542 21.0041 30.5556 20.2847 30.5556 19.4445C30.5556 18.5926 30.8548 17.8704 31.4531 17.2778C32.0515 16.6852 32.7708 16.3889 33.6111 16.3889C34.463 16.3889 35.1852 16.6852 35.7778 17.2778C36.3704 17.8704 36.6667 18.5966 36.6667 19.4565C36.6667 20.2911 36.3704 21.007 35.7778 21.6042C35.1852 22.2014 34.4589 22.5 33.5991 22.5ZM20 20C18.6111 20 17.4306 19.5139 16.4583 18.5417C15.4861 17.5694 15 16.3889 15 15C15 13.5833 15.4861 12.3958 16.4583 11.4375C17.4306 10.4792 18.6111 10 20 10C21.4167 10 22.6042 10.4792 23.5625 11.4375C24.5208 12.3958 25 13.5833 25 15C25 16.3889 24.5208 17.5694 23.5625 18.5417C22.6042 19.5139 21.4167 20 20 20ZM20.0098 12.7777C19.3829 12.7777 18.8542 12.9898 18.4236 13.4138C17.993 13.8379 17.7778 14.3634 17.7778 14.9902C17.7778 15.6171 17.9917 16.1458 18.4195 16.5764C18.8473 17.007 19.3774 17.2223 20.0098 17.2223C20.6421 17.2223 21.169 17.0083 21.5903 16.5805C22.0116 16.1527 22.2222 15.6226 22.2222 14.9902C22.2222 14.3579 22.0102 13.831 21.5862 13.4097C21.1621 12.9884 20.6366 12.7777 20.0098 12.7777Z" fill="#5c3eb9"/>
</g>
</svg>
